<svg xmlns="http://www.w3.org/2000/svg" viewBox="0 0 62.1 22.6"><g id="Layer_2" data-name="Layer 2"><g id="Layer_1-2" data-name="Layer 1"><path d="M7.7,20.7v-2l3.6-2,3.6,2v2ZM8,18.9v1.4h6.5V18.9l-3.2-1.8Z"/><rect x="11.1" width="0.3" height="22.5" transform="translate(-4.7 11.3) rotate(-45.1)"/><rect y="11.1" width="22.5" height="0.34" transform="translate(-4.7 11.3) rotate(-45)"/><path d="M0,22.6V0H22.6V22.6Zm.3-.4H22.2V.3H.3Z"/><path d="M27.8,5.8V1H26.1V.5h4V1H28.4V5.8Z"/><path d="M35.6,5.8V3.3H32.5V5.8h-.7V.5h.7V2.7h3.1V.5h.6V5.8Z"/><path d="M38.3,5.8V.5h3.5V1H38.9V2.8h2.8v.6H38.9V5.2h2.9v.6Z"/><path d="M31,13.8V9.4l-1.8,4.4h-.3L27.1,9.4v4.4h-.7V8.5h1l1.6,4,1.7-4h1v5.3Z"/><path d="M33.7,13.8V8.5h.7v5.3Z"/><path d="M40.2,13.8,37.1,9.5v4.3h-.7V8.5h.7l3.1,4.1V8.5h.6v5.3Z"/><path d="M42.9,13.8V8.5h.6v5.3Z"/><path d="M50.1,13.8V9.4l-1.8,4.4h-.2L46.3,9.4v4.4h-.7V8.5h.9l1.7,4,1.7-4h.9v5.3Z"/><path d="M56.7,13.8l-.5-1.2H53.5l-.4,1.2h-.8l2.2-5.3h.8l2.1,5.3ZM54.9,9.1,53.7,12H56Z"/><path d="M58.9,13.8V8.5h.7v4.7h2.5v.6Z"/><path d="M26.4,21.8V16.5h.7v4.7h2.5v.6Z"/><path d="M30.8,19.1a2.7,2.7,0,1,1,5.3,0,2.7,2.7,0,1,1-5.3,0Zm4.6,0A1.9,1.9,0,0,0,33.5,17a2,2,0,0,0-2,2.1,2,2,0,0,0,2,2.2C34.7,21.3,35.4,20.4,35.4,19.1Z"/><path d="M37.7,19.1a2.7,2.7,0,0,1,2.8-2.7,2.7,2.7,0,0,1,2.1,1l-.6.3a2,2,0,0,0-1.5-.7,2,2,0,0,0-2.1,2.1,2.1,2.1,0,0,0,2.1,2.2,1.8,1.8,0,0,0,1.4-.6V19.6H40.1V19h2.5v2a2.9,2.9,0,0,1-2.1.9A2.7,2.7,0,0,1,37.7,19.1Z"/><path d="M44.2,19.1a2.6,2.6,0,0,1,2.7-2.7,2.5,2.5,0,0,1,2.6,2.7,2.6,2.6,0,0,1-2.6,2.8A2.7,2.7,0,0,1,44.2,19.1Zm4.7,0a2,2,0,1,0-4,0,2,2,0,1,0,4,0Z"/><path d="M3.8,14.1V10.9H2.7v-.3H5.4v.3H4.2v3.2Z"/><path d="M12.5,5.8V2.9L11.3,5.8h-.2L9.9,2.9V5.8H9.5V2.3h.6l1.1,2.6,1.1-2.6h.6V5.8Z"/><path d="M17.7,14.1V10.6h.4v3.1h1.6v.4Z"/></g></g></svg>